<svg xmlns="http://www.w3.org/2000/svg">
    <symbol id='logo'  viewBox="0 0 53 39">
        <path
            d="M0 8.7C0 6.2 0.8 4.2 2.4 2.5C4.1 0.9 6.1 0 8.6 0C11.2 0 13.2 0.7 14.8 2.2L13.6 4C13 3.4 12.2 3 11.3 2.7C10.4 2.4 9.6 2.2 8.7 2.2C6.8 2.2 5.3 2.8 4.1 4C3 5.3 2.5 6.8 2.5 8.7C2.5 10.6 3.1 12.2 4.2 13.5C5.4 14.8 6.9 15.4 8.8 15.4C9.7 15.4 10.7 15.2 11.6 14.8C12.5 14.4 13.3 13.9 14 13.2L15.3 14.9C13.5 16.7 11.3 17.6 8.7 17.6C6.1 17.6 4 16.8 2.4 15.1C0.8 13.3 0 11.2 0 8.7Z"
              />
        <path d="M18.3 17.3V0.300049H20.6V7.70005H29.4V0.300049H31.8V17.2001H29.4V9.80005H20.6V17.2001H18.3V17.3Z"
              />
        <path
            d="M35.2 8.7C35.2 6.3 36 4.2 37.7 2.5C39.3 0.8 41.4 0 43.9 0C46.4 0 48.5 0.8 50.1 2.5C51.8 4.2 52.6 6.2 52.6 8.7C52.6 11.2 51.8 13.3 50.1 15C48.4 16.7 46.4 17.6 43.9 17.6C41.4 17.6 39.3 16.7 37.7 15C36 13.3 35.2 11.2 35.2 8.7ZM37.7 8.7C37.7 10.6 38.3 12.2 39.5 13.5C40.7 14.8 42.2 15.4 44 15.4C45.8 15.4 47.3 14.8 48.5 13.5C49.7 12.2 50.3 10.6 50.3 8.7C50.3 6.9 49.7 5.3 48.5 4.1C47.3 2.9 45.8 2.2 44 2.2C42.2 2.2 40.7 2.8 39.5 4.1C38.2 5.3 37.7 6.8 37.7 8.7Z"
              />
        <path
            d="M0 29.7C0 27.2 0.8 25.2 2.4 23.5C4.1 21.9 6.1 21 8.6 21C11.2 21 13.2 21.7 14.8 23.2L13.6 25C13 24.4 12.2 24 11.3 23.7C10.4 23.4 9.5 23.2 8.7 23.2C6.8 23.2 5.3 23.8 4.1 25C3 26.2 2.4 27.8 2.4 29.6C2.4 31.5 3 33.1 4.1 34.4C5.3 35.7 6.8 36.3 8.7 36.3C9.6 36.3 10.6 36.1 11.5 35.7C12.4 35.3 13.2 34.8 13.9 34.1L15.2 35.8C13.4 37.6 11.2 38.5 8.6 38.5C6 38.5 3.9 37.7 2.3 36C0.8 34.3 0 32.2 0 29.7Z"
              />
        <path
            d="M16.8 29.7C16.8 27.2 17.6 25.2 19.2 23.5C20.8 21.9 22.9 21 25.4 21C28 21 30 21.7 31.6 23.2L30.4 25C29.8 24.4 29 24 28.1 23.7C27.2 23.4 26.3 23.2 25.5 23.2C23.6 23.2 22.1 23.8 20.9 25C19.8 26.2 19.2 27.8 19.2 29.6C19.2 31.5 19.8 33.1 20.9 34.4C22.1 35.7 23.6 36.3 25.5 36.3C26.4 36.3 27.4 36.1 28.3 35.7C29.2 35.3 30 34.8 30.7 34.1L32 35.8C30.2 37.6 28 38.5 25.4 38.5C22.8 38.5 20.7 37.7 19.1 36C17.6 34.3 16.8 32.2 16.8 29.7Z"
              />
        <path
            d="M33.6 29.7C33.6 27.3 34.4 25.2 36.1 23.5C37.7 21.8 39.8 21 42.3 21C44.8 21 46.9 21.8 48.5 23.5C50.1 25.2 51 27.2 51 29.7C51 32.2 50.2 34.3 48.5 36C46.8 37.7 44.8 38.6 42.3 38.6C39.8 38.6 37.7 37.7 36.1 36C34.4 34.3 33.6 32.2 33.6 29.7ZM36 29.7C36 31.6 36.6 33.2 37.8 34.5C39 35.8 40.5 36.4 42.3 36.4C44.1 36.4 45.6 35.8 46.8 34.5C48 33.2 48.6 31.6 48.6 29.7C48.6 27.9 48 26.3 46.8 25.1C45.6 23.9 44.1 23.2 42.3 23.2C40.5 23.2 39 23.8 37.8 25.1C36.6 26.3 36 27.8 36 29.7Z"
             />
    </symbol>
    <symbol id="phone" viewBox="0 0 14 15">
        <path
            d="M13.7455 13.0923C13.4909 13.5935 12.9818 13.8441 12.4727 14.0947C11.8364 14.4706 11.3273 14.5959 10.6909 14.5959C9.8 14.5959 8.90909 14.22 8.14545 13.9694C7.50909 13.7188 7 13.4682 6.36364 13.2176C4.58182 12.09 2.54545 10.0853 1.52727 8.45643C1.14545 7.82996 0.890909 7.32878 0.636364 6.70231C0.381818 5.82525 0 5.07349 0 4.07113C0 3.44466 0.127273 2.81819 0.509091 2.19172C0.763636 1.69054 1.01818 1.18936 1.52727 0.938771C1.90909 0.938771 2.54545 0.813477 2.92727 0.813477C3.05455 0.813477 3.05455 0.813477 3.18182 0.813477C3.43636 0.938771 3.56364 1.31465 3.69091 1.56524C3.94545 2.19172 4.32727 2.69289 4.58182 3.31936C4.83636 3.56995 5.09091 3.82054 5.09091 4.07113C5.09091 4.6976 3.30909 5.57466 3.30909 6.07584C3.30909 6.32643 3.56364 6.70231 3.69091 6.9529C4.70909 8.70702 5.98182 9.95997 7.76364 10.9623C8.01818 11.0876 8.4 11.3382 8.65455 11.3382C9.16364 11.3382 10.0545 9.58408 10.6909 9.58408C10.9455 9.58408 11.2 9.83467 11.4545 10.0853C11.9636 10.4611 12.6 10.7117 13.1091 11.0876C13.3636 11.2129 13.7455 11.3382 13.8727 11.5888C13.8727 11.7141 13.8727 11.7141 13.8727 11.8394C14 12.09 13.8727 12.7164 13.7455 13.0923Z" />
    </symbol>
    <symbol id="leaf" viewBox="0 0 39 37">
        <path
            d="M5.68662 22.4709C5.68662 22.9568 5.92954 23.4426 5.92954 23.9284C5.92954 25.8718 6.17246 29.0297 6.17246 29.0297H7.38704C7.38704 29.0297 7.38704 23.9284 6.65829 21.2563C5.92954 18.3413 5.68662 12.9971 7.38704 9.11043L6.17246 8.6246C6.17246 8.6246 4.71495 11.5396 4.71495 16.1551C4.71495 19.0701 4.95787 20.2847 5.20078 21.4992C4.22911 20.7705 1.55701 18.3413 1.79993 13.24C2.28577 7.41001 7.38704 2.06581 7.38704 2.06581C7.38704 2.06581 16.375 10.5679 8.35872 20.0417L9.33039 20.7705C9.33039 20.7705 12.9742 16.6409 12.9742 12.0254C12.9742 7.41001 11.0308 3.52332 7.38704 0.365387C7.38704 0.365387 1.07118 6.43834 0.585343 13.7259C0.342425 20.5276 5.4437 22.9568 5.4437 22.9568L5.68662 22.4709Z" />
        <path
            d="M18.3183 16.1551C9.33038 18.8272 9.81622 27.5722 10.0591 29.5156C6.9012 32.6735 5.4437 35.5885 5.4437 35.5885L6.41537 36.0743C15.6462 20.7705 29.9784 23.6855 29.9784 23.6855V22.4709C21.2334 21.4993 15.1604 24.9001 11.0308 28.301C10.7879 25.143 12.2454 17.6126 21.4763 16.8838C32.1647 16.6409 37.2659 22.9568 37.2659 22.9568C31.6788 31.9447 25.363 33.1593 21.4763 33.6452C17.3467 34.3739 12.2454 31.4589 12.2454 31.4589L11.7596 32.4306C11.7596 32.4306 16.1321 35.3456 21.7192 34.8597C33.8651 33.4022 38.4805 22.7138 38.4805 22.7138C37.2659 20.2847 28.278 13.7259 18.3183 16.1551Z" />
    </symbol>
    <symbol id="car" viewBox="0 0 40 32">
        <path
            d="M6.84767 12.6328L9.01168 10.9016H9.22808C9.87729 10.9016 10.3101 10.4688 10.3101 9.81963C10.3101 9.38683 10.0937 9.17043 9.87729 8.95403V4.40961H8.79528V8.95403C8.36248 9.17043 8.14608 9.38683 8.14608 9.81963V10.036L5.98207 11.7672L6.84767 12.6328Z" />
        <path
            d="M39.7406 24.3185V17.3936C39.7406 15.2296 38.875 14.364 38.875 14.364C38.875 14.364 36.711 11.5508 35.4126 9.81961C34.1142 8.08841 32.383 8.08841 32.383 8.08841H25.0254V7.0064C25.0254 5.49159 23.9434 4.40959 22.4285 4.40959H16.1529C14.6381 2.24558 12.0413 0.730774 9.22809 0.730774C4.46727 0.730774 0.788452 4.62599 0.788452 9.38681C0.788452 11.3344 1.43765 13.0656 2.51966 14.5804V24.1021C2.51966 25.6169 3.60166 26.6989 5.11647 26.6989H6.19848V26.9153C6.19848 29.5121 8.36249 31.6761 10.9593 31.6761C13.5561 31.6761 15.7201 29.5121 15.7201 26.9153C15.7201 26.6989 15.7201 26.6989 15.7201 26.6989H22.2121H22.4285C23.0777 26.6989 24.5926 26.6989 26.5402 26.6989V26.9153C26.5402 29.5121 28.7042 31.6761 31.301 31.6761C33.8978 31.6761 36.0618 29.5121 36.0618 26.9153C36.0618 26.6989 36.0618 26.6989 36.0618 26.6989C36.2782 26.6989 36.4946 26.6989 36.4946 26.6989C40.1734 26.9153 39.7406 24.3185 39.7406 24.3185ZM38.6586 16.7444C38.6586 16.7444 38.6586 16.9608 38.6586 17.3936H30.219C29.7862 17.3936 29.3534 16.9608 29.3534 16.528V13.0656C29.3534 12.6328 29.7862 12.2 30.219 12.2H35.8454C36.4946 12.8492 37.1438 13.7148 37.5766 14.364C38.6586 15.6624 38.6586 16.7444 38.6586 16.7444ZM9.22809 2.02918C13.3397 2.02918 16.8021 5.27519 16.8021 9.60321C16.8021 13.9312 13.3397 16.9608 9.22809 16.9608C5.11647 16.9608 1.87046 13.4984 1.87046 9.38681C1.87046 5.27519 5.11647 2.02918 9.22809 2.02918ZM10.7429 30.5941C8.79529 30.5941 7.28048 29.0793 7.28048 27.1317C7.28048 25.1841 8.79529 23.6693 10.7429 23.6693C12.6905 23.6693 14.2053 25.1841 14.2053 27.1317C14.2053 29.0793 12.6905 30.5941 10.7429 30.5941ZM15.0709 25.6169C14.4217 23.8857 12.6905 22.3709 10.7429 22.3709C8.79529 22.3709 7.06408 23.6693 6.41488 25.6169H4.90007C4.25087 25.6169 3.60166 24.9677 3.60166 24.3185V15.6624C5.11647 16.9608 7.06408 17.8264 9.22809 17.8264C13.9889 17.8264 17.6677 13.9312 17.6677 9.38681C17.6677 8.08841 17.2349 6.79 16.8021 5.708H22.4285C23.0777 5.708 23.7269 6.3572 23.7269 7.0064V24.3185C23.7269 24.9677 23.0777 25.6169 22.4285 25.6169H15.0709ZM31.0846 30.5941C29.137 30.5941 27.6222 29.0793 27.6222 27.1317C27.6222 25.1841 29.137 23.6693 31.0846 23.6693C33.0322 23.6693 34.547 25.1841 34.547 27.1317C34.547 29.0793 33.0322 30.5941 31.0846 30.5941ZM36.4946 25.8333H35.629C34.9798 23.8857 33.2486 22.5873 31.301 22.5873C29.137 22.5873 27.4058 23.8857 26.973 25.8333H24.809C25.2418 25.4005 25.4582 24.9677 25.4582 24.3185V8.95401C25.4582 8.95401 30.219 8.95401 32.1666 8.95401C34.1142 8.95401 34.9798 10.2524 34.9798 10.2524C34.9798 10.2524 34.7634 10.6852 35.1962 11.118H30.219C29.137 11.118 28.4878 11.9836 28.4878 12.8492V16.3116C28.4878 17.3936 29.3534 18.0428 30.219 18.0428H38.875C38.875 19.7741 38.875 22.3709 38.875 23.6693C38.6586 26.0497 36.4946 25.8333 36.4946 25.8333Z" />
    </symbol>
    <symbol id="metrica" viewBox="0 0 37 37">
        <path
            d="M10.5679 7.16711C10.5679 7.65294 11.5396 8.13878 12.9971 8.13878C14.4546 8.13878 15.4263 7.65294 15.4263 7.16711C15.4263 6.68127 14.4546 6.19543 12.9971 6.19543C11.7825 6.19543 10.5679 6.43835 10.5679 7.16711Z" />
        <path
            d="M36.8031 16.1551C36.8031 13.7259 34.8597 11.7825 32.4306 11.7825H31.4589H10.0821C10.0821 11.7825 4.25207 12.0254 1.57998 7.41001C1.82289 4.00916 4.49499 1.57998 7.89584 1.57998H17.6126C21.2563 1.57998 23.9284 4.49499 23.9284 7.89584V9.11043H25.143V8.13876C25.143 3.76624 21.7422 0.365387 17.3696 0.365387H8.13876C3.76624 0.365387 0.365387 3.76624 0.365387 8.13876V11.2967V11.7825V19.5559C0.365387 23.9284 3.76624 27.3293 8.13876 27.3293H9.83919V26.1147H7.89584C4.25207 26.1147 1.57998 23.1997 1.57998 19.7988V11.7825V11.2967V9.59627C2.30873 10.5679 4.73791 12.9971 9.83919 12.9971C17.1267 12.9971 31.216 12.9971 31.216 12.9971H32.4306C34.131 12.9971 35.3456 14.2117 35.3456 15.9121V17.3696V17.8555C35.3456 19.5559 34.131 20.7705 32.4306 20.7705H32.1876H16.8838C14.4546 20.7705 12.5113 22.7138 12.5113 25.143V31.7018C12.5113 34.131 14.4546 36.0743 16.8838 36.0743H32.4306C34.8597 36.0743 36.8031 34.131 36.8031 31.7018V25.143C36.8031 25.143 36.8031 19.313 36.8031 17.6126C36.8031 17.6126 36.8031 17.6126 36.8031 17.3696V16.1551ZM35.3456 32.1876C35.3456 33.8881 34.131 35.1027 32.4306 35.1027H16.6409C14.9405 35.1027 13.7259 33.8881 13.7259 32.1876V25.143C13.7259 23.4426 14.9405 22.228 16.6409 22.228H21.2563V26.3576H22.4709V22.228H28.058H30.2443V26.3576H31.4589V22.228H32.4306C33.6451 22.228 34.8597 21.7422 35.5885 21.0134V32.1876H35.3456Z" />
    </symbol>
    <symbol id="feat-1" viewBox="0 0 68 68">
        <path
            d="M34 2C16.4314 2 2 16.4314 2 34C2 51.5686 16.4314 66 34 66C51.5686 66 66 51.5686 66 34C66 16.4314 51.5686 2 34 2ZM34 63.4902C17.6863 63.4902 4.5098 50.3137 4.5098 34C4.5098 17.6863 17.6863 4.5098 34 4.5098C50.3137 4.5098 63.4902 17.6863 63.4902 34C63.4902 50.3137 50.3137 63.4902 34 63.4902Z" />
        <path
            d="M34 50.6275C23.0196 50.6275 16.4314 40.902 16.4314 40.902L14.2353 42.4706C23.0196 53.7647 34 53.451 34 53.451C34 53.451 44.9804 54.0785 53.7647 42.4706L51.5686 40.902C51.5686 40.902 44.9804 50.6275 34 50.6275Z" />
        <path
            d="M23.3333 37.451C30.8627 34 32.1176 29.6078 32.1176 27.4118C32.1176 24.902 30.549 22.0784 27.7255 22.0784C24.5882 22.0784 23.3333 23.6471 23.3333 23.6471C23.3333 23.6471 22.0784 22.0784 18.9412 22.0784C16.1176 22.0784 14.549 25.2157 14.549 27.4118C14.549 29.6078 15.8039 34 23.3333 37.451ZM23.3333 26.7843C24.902 24.2745 29.2941 23.9608 29.6078 27.098C29.6078 31.4902 23.3333 34.6275 23.3333 34.6275C23.3333 34.6275 17.0588 31.4902 17.0588 27.098C17.3725 23.9608 21.7647 24.2745 23.3333 26.7843Z" />
        <path
            d="M44.6667 37.451C52.1961 34 53.451 29.6078 53.451 27.7255C53.451 25.2157 51.8824 22.3922 49.0588 22.3922C45.9216 22.3922 44.6667 23.9608 44.6667 23.9608C44.6667 23.9608 43.4118 22.3922 40.2745 22.3922C37.451 22.3922 35.8824 25.5294 35.8824 27.7255C35.8824 29.6078 37.1373 34 44.6667 37.451ZM44.6667 26.7843C46.2353 24.2745 50.6274 23.9608 50.9412 27.098C50.9412 31.4902 44.6667 34.6274 44.6667 34.6274C44.6667 34.6274 38.3922 31.4902 38.3922 27.098C38.7059 23.9608 43.098 24.2745 44.6667 26.7843Z" />
    </symbol>
    <symbol id="feat-3" viewBox="0 0 68 68">
        <path
            d="M51.9372 15.4497C45.9103 15.4497 38.1614 19.7547 38.4484 28.6515C38.4484 28.6515 26.6816 24.9206 23.2377 37.2614C23.2377 37.2614 21.2287 32.9565 18.6457 30.9475C15.7758 28.9385 12.3318 23.7726 12.0448 21.1896C12.3318 19.7547 12.6188 19.7547 13.1928 19.4677C13.4798 19.4677 13.4798 21.7636 16.0628 22.0506C18.3587 21.7636 18.9327 21.1896 19.7937 20.0417L22.3767 17.1717C22.3767 17.1717 24.9596 13.7278 22.6637 12.0058C20.6547 9.99681 16.9238 6.26587 12.3318 7.12686C9.74888 7.70085 7.73991 9.70982 7.73991 9.70982L4.29596 12.8668C4.29596 12.8668 2 15.1627 2 19.7547C2 23.7726 2.86099 30.3735 2.86099 30.3735C2.86099 30.3735 3.72197 35.5394 4.00897 37.2614C4.29596 38.9834 6.59193 49.0282 12.0448 54.4811C15.4888 58.4991 17.4978 60.221 19.2197 60.508C22.0897 60.508 23.5247 58.7861 25.8206 58.7861C28.1166 58.7861 30.4126 60.508 35.2915 60.508C40.1704 60.508 51.0762 57.6381 55.6682 43.5753C59.9731 41.8533 66 38.6964 66 29.2255C66 19.7547 57.6771 15.4497 51.9372 15.4497ZM53.9462 41.8533C50.7892 54.4811 40.7444 57.9251 35.8655 58.4991C31.2735 58.4991 28.6906 56.7771 25.2466 56.7771C23.2377 56.7771 20.3677 58.4991 19.5067 58.4991C18.6457 58.4991 16.3498 56.4901 13.4798 53.3331C10.6099 50.1762 9.46188 47.3062 8.3139 45.0103C7.16592 42.7143 5.15695 33.5304 5.15695 33.5304C5.15695 33.5304 4.29596 24.3466 4.29596 20.3287C4.29596 16.5977 6.01794 14.3017 6.01794 14.3017C6.01794 14.3017 8.3139 12.2928 10.6099 10.2838C13.1928 8.27484 16.3498 9.70982 16.3498 9.70982C16.3498 9.70982 19.5067 11.7188 20.6547 12.8668C22.0897 14.0148 20.6547 15.1627 20.6547 15.1627C20.6547 15.1627 17.4978 19.1807 16.3498 19.4677C14.9148 19.7547 14.6278 16.3107 14.6278 16.3107C13.1928 16.8847 10.8969 17.4587 10.0359 20.0417C9.17489 23.1986 13.7668 29.7995 17.2108 32.9565C20.3677 36.1134 22.3767 41.2793 22.3767 41.2793L24.9596 40.4183C24.9596 40.4183 24.6726 34.3914 29.8386 31.2345C35.5785 28.0775 40.7444 32.3825 40.7444 32.3825C39.0224 18.0327 51.6502 17.7457 52.5112 17.7457C53.3722 17.7457 63.417 18.6067 64.278 28.6515C63.704 40.1313 53.9462 41.8533 53.9462 41.8533Z" />
    </symbol>
    <symbol id="vector" viewBox="0 0 65 69">
        <path
            d="M60.03 19.665C60.72 18.975 61.41 18.285 61.755 17.595C64.17 14.49 63.825 13.11 61.41 11.04C58.995 8.97 55.2 12.075 55.2 12.075C55.2 12.075 54.855 12.42 54.51 12.765C50.715 9.315 45.885 6.555 40.365 5.175C38.295 2.07 35.19 0 31.74 0C27.945 0 24.84 2.415 22.77 5.52C18.285 6.9 14.145 9.315 10.695 12.42C10.005 12.075 8.625 10.695 6.9 10.35C4.485 10.005 2.07 11.73 1.725 14.145C1.725 15.525 3.105 17.595 4.83 19.665C1.725 24.495 0 30.015 0 36.225C0 53.82 14.49 68.31 32.43 68.31C38.64 68.31 44.85 66.585 49.68 63.48L48.645 61.065C44.16 49.68 45.195 42.435 45.54 38.985C46.575 35.19 50.37 30.015 52.44 27.255C53.82 25.53 55.89 23.805 57.96 21.735C60.72 25.875 62.1 30.705 62.1 36.225C62.1 44.16 58.65 51.405 53.475 56.925L55.545 58.65C61.41 52.785 64.86 44.85 64.86 36.225C64.86 30.015 63.135 24.495 60.03 19.665ZM31.74 2.76C36.225 2.76 39.675 6.9 39.675 12.075C39.675 17.25 36.225 21.39 31.74 21.39C27.255 21.39 23.805 17.595 23.805 12.075C23.805 6.555 27.255 2.76 31.74 2.76ZM31.74 24.15C37.605 24.15 42.435 18.63 42.435 12.075C42.435 10.695 42.09 9.66 41.745 8.28C45.885 9.66 49.335 11.73 52.44 14.49C49.68 16.905 45.54 20.01 43.47 21.39C40.365 23.805 35.19 26.22 31.05 26.22C26.91 26.22 24.84 24.495 21.735 23.115C18.975 21.735 14.49 16.56 12.42 14.49C15.18 12.075 18.285 10.35 21.39 8.97C21.39 10.005 21.045 11.04 21.045 12.075C21.045 18.975 25.875 24.15 31.74 24.15ZM2.76 36.225C2.76 31.05 4.14 26.22 6.555 21.735C7.245 22.425 7.59 22.77 7.59 22.77C7.59 22.77 16.215 32.775 17.94 35.19C19.665 37.605 17.595 39.33 16.215 45.54C15.18 50.37 15.18 56.925 15.18 60.03C7.59 54.51 2.76 45.885 2.76 36.225ZM56.235 19.665C54.855 21.045 50.025 25.185 45.885 31.74C41.745 38.295 42.435 43.47 42.78 47.265C43.125 51.06 44.16 54.51 44.505 55.89C44.85 56.925 46.23 60.72 46.575 61.755C42.435 63.825 37.605 65.205 32.775 65.205C27.255 65.205 22.425 63.825 17.94 61.41C17.94 49.68 18.63 47.955 18.975 46.23C18.975 44.505 20.01 41.055 21.045 38.295C21.735 35.88 20.7 33.81 19.665 32.775C18.63 31.74 8.625 19.665 6.9 17.25C4.83 14.835 4.485 13.8 6.21 13.11C7.935 12.075 12.42 17.595 14.49 20.01C16.215 22.425 24.15 28.98 31.395 28.635C38.64 28.29 43.815 24.495 45.885 23.115C47.61 21.735 56.58 14.49 57.96 13.455C59.34 12.42 61.065 13.455 60.72 14.49C60.375 15.525 57.615 18.285 56.235 19.665Z" />
    </symbol>
</svg>